<svg width="50" height="50" viewBox="0 0 50 50" fill="none" xmlns="http://www.w3.org/2000/svg">
<rect width="50" height="50" rx="8" fill="#007686"/>
<path d="M32 14L27 19V30L32 25.5V14ZM34 18V31.5C32.9 31.15 31.7 31 30.5 31C28.8 31 26.35 31.65 25 32.5V19C23.55 17.9 21.45 17.5 19.5 17.5C17.55 17.5 15.45 17.9 14 19V33.65C14 33.9 14.25 34.15 14.5 34.15C14.6 34.15 14.65 34.1 14.75 34.1C16.1 33.45 18.05 33 19.5 33C21.45 33 23.55 33.4 25 34.5C26.35 33.65 28.8 33 30.5 33C32.15 33 33.85 33.3 35.25 34.05C35.35 34.1 35.4 34.1 35.5 34.1C35.75 34.1 36 33.85 36 33.6V19C35.4 18.55 34.75 18.25 34 18ZM23 31.41C21.75 31.09 20.5 31 19.5 31C18.44 31 17.18 31.19 16 31.5V20.13C16.91 19.73 18.14 19.5 19.5 19.5C20.86 19.5 22.09 19.73 23 20.13V31.41Z" fill="white"/>
</svg>
