<svg width="50" height="50" viewBox="0 0 50 50" fill="none" xmlns="http://www.w3.org/2000/svg">
<rect width="50" height="50" rx="50" fill="red"/>
<path d="M33.71 20.7099C34.96 19.4599 34.39 17.9999 33.71 17.2899L30.71 14.2899C29.45 13.0399 28 13.6099 27.29 14.2899L25.59 15.9999H23C21.1 15.9999 20 16.9999 19.44 18.1499L15 22.5899V26.5899L14.29 27.2899C13.04 28.5499 13.61 29.9999 14.29 30.7099L17.29 33.7099C17.83 34.2499 18.41 34.4499 18.96 34.4499C19.67 34.4499 20.32 34.0999 20.71 33.7099L23.41 30.9999H27C28.7 30.9999 29.56 29.9399 29.87 28.8999C31 28.5999 31.62 27.7399 31.87 26.8999C33.42 26.4999 34 25.0299 34 23.9999V20.9999H33.41L33.71 20.7099ZM32 23.9999C32 24.4499 31.81 24.9999 31 24.9999H30V25.9999C30 26.4499 29.81 26.9999 29 26.9999H28V27.9999C28 28.4499 27.81 28.9999 27 28.9999H22.59L19.31 32.2799C19 32.5699 18.82 32.3999 18.71 32.2899L15.72 29.3099C15.43 28.9999 15.6 28.8199 15.71 28.7099L17 27.4099V23.4099L19 21.4099V22.9999C19 24.2099 19.8 25.9999 22 25.9999C24.2 25.9999 25 24.2099 25 22.9999H32V23.9999ZM32.29 19.2899L30.59 20.9999H23V22.9999C23 23.4499 22.81 23.9999 22 23.9999C21.19 23.9999 21 23.4499 21 22.9999V19.9999C21 19.5399 21.17 17.9999 23 17.9999H26.41L28.69 15.7199C29 15.4299 29.18 15.5999 29.29 15.7099L32.28 18.6899C32.57 18.9999 32.4 19.1799 32.29 19.2899Z" fill="white"/>
</svg>
