<svg width="50" height="50" viewBox="0 0 50 50" fill="none" xmlns="http://www.w3.org/2000/svg">
<rect width="50" height="50" rx="8" fill="#8B5E8E"/>
<path d="M35 22V20H33V18C33 17.4696 32.7893 16.9609 32.4142 16.5858C32.0391 16.2107 31.5304 16 31 16H17C16.4696 16 15.9609 16.2107 15.5858 16.5858C15.2107 16.9609 15 17.4696 15 18V32C15 32.5304 15.2107 33.0391 15.5858 33.4142C15.9609 33.7893 16.4696 34 17 34H31C31.5304 34 32.0391 33.7893 32.4142 33.4142C32.7893 33.0391 33 32.5304 33 32V30H35V28H33V26H35V24H33V22H35ZM31 32H17V18H31V32ZM19 26H24V30H19V26ZM25 20H29V23H25V20ZM19 20H24V25H19V20ZM25 24H29V30H25V24Z" fill="white"/>
</svg>
